<?xml version="1.0" encoding="UTF-8"?>
<svg width="88px" height="76px" viewBox="0 0 88 76" version="1.1" xmlns="http://www.w3.org/2000/svg" xmlns:xlink="http://www.w3.org/1999/xlink">
    <!-- Generator: Sketch 47.1 (45422) - http://www.bohemiancoding.com/sketch -->
    <title>icon</title>
    <desc>Created with Sketch.</desc>
    <defs>
        <linearGradient x1="105.448428%" y1="82.8480191%" x2="19.7863981%" y2="23.0427848%" id="linearGradient-1">
            <stop stop-color="#FFCF00" offset="0%"></stop>
            <stop stop-color="#FFB100" offset="100%"></stop>
        </linearGradient>
        <linearGradient x1="41.3251954%" y1="52.5973579%" x2="68.6890136%" y2="99.3353396%" id="linearGradient-2">
            <stop stop-color="#00A8F3" offset="0%"></stop>
            <stop stop-color="#59C1D3" offset="100%"></stop>
        </linearGradient>
        <linearGradient x1="22.4314218%" y1="52.5973579%" x2="109.393791%" y2="99.3353396%" id="linearGradient-3">
            <stop stop-color="#00A8F3" offset="0%"></stop>
            <stop stop-color="#59C1D3" offset="100%"></stop>
        </linearGradient>
        <linearGradient x1="105.448428%" y1="110.92621%" x2="19.7863981%" y2="0%" id="linearGradient-4">
            <stop stop-color="#FFCF00" offset="0%"></stop>
            <stop stop-color="#FFB100" offset="100%"></stop>
        </linearGradient>
    </defs>
    <g id="Page-1" stroke="none" stroke-width="1" fill="none" fill-rule="evenodd">
        <g id="icon" fill-rule="nonzero">
            <polygon id="Path-2" fill="url(#linearGradient-1)" points="66.340312 47.9650608 66.340312 69.1434462 71.606719 74.3420139 76.949687 74.3420139 82.911719 72.6221788 86.994687 65.7981771 86.994687 46.2126736"></polygon>
            <path d="M8.8790625,45.4361118 L0,58.0923618 L0,63.5773879 L4.4395312,70.1919712 L15.6832812,71.9834209 L41.1457812,71.9834209 L45.64,70.1919712 L49.8859375,63.5773879 L49.8859375,58.0923618 C43.6019792,48.767275 40.1420833,44.0718179 39.50625,44.0059903 C38.8704167,43.9401628 28.6613542,44.4168699 8.8790625,45.4361118 Z" id="Path-8" fill="url(#linearGradient-2)"></path>
            <path d="M40.0301655,33.9647529 L40.0301655,17.8705479 L44.5495759,17.8705479 L44.5495759,15 L14.0904957,15 L14.0904957,17.8705479 L18.6099061,17.8705479 L18.6099061,33.9645615 L4.4916432,58.4644961 C2.5026901,61.9158515 2.5028811,66.03681 4.4916432,69.4881654 C6.4805964,72.9395207 10.042681,75 14.0203963,75 L44.6196754,75 C48.5973906,75 52.1594753,72.9395207 54.1484284,69.4881654 C56.1371905,66.03681 56.1371905,61.9158515 54.1484284,58.4644961 L40.0301655,33.9647529 Z M21.4750072,34.7338683 L21.4750072,17.8705479 L37.1652555,17.8705479 L37.1652555,34.7338683 L42.8897274,44.6678776 L15.7505353,44.6678776 L21.4750072,34.7338683 Z M51.6670599,68.0528914 C50.196117,70.605574 47.5615611,72.1294521 44.6196754,72.1294521 L14.0203963,72.1294521 C11.0785105,72.1294521 8.4439546,70.605574 6.9730117,68.0528914 C5.5020689,65.5002089 5.5020689,62.4522612 6.9730117,59.89977 L10.3305281,54.0735147 L19.2442395,54.0735147 L19.2442395,51.2029669 L11.9846465,51.2029669 L14.0964169,47.5384255 L44.5438457,47.5384255 L51.6672509,59.89977 C53.1380028,62.4522612 53.1380028,65.5002089 51.6670599,68.0528914 Z" id="Shape" stroke="#313131" stroke-width="1.12" fill="#313131"></path>
            <path d="M87,15 L56.76,15 L56.76,17.870557 L59.82693,17.870557 L59.82693,62.9861448 C59.82693,69.6106249 65.233897,75 71.88,75 C78.526103,75 83.93307,69.6106249 83.93307,62.9861448 L83.93307,17.870557 L87,17.870557 L87,15 Z M71.88,72.1296344 C66.821888,72.1296344 62.706857,68.0279911 62.706857,62.9863361 L62.706857,62.1335893 L69.423038,62.1335893 L69.423038,59.2630323 L62.706857,59.2630323 L62.706857,47.5383379 L81.053143,47.5383379 L81.053143,51.7999668 L74.030537,51.7999668 L74.030537,54.6705238 L81.053143,54.6705238 L81.053143,62.9863361 C81.053143,68.0279911 76.938112,72.1296344 71.88,72.1296344 Z M81.053143,44.6679722 L62.706857,44.6679722 L62.706857,17.870557 L81.053143,17.870557 L81.053143,44.6679722 Z" id="Shape" stroke="#313131" stroke-width="1.12" fill="#313131"></path>
            <rect id="Rectangle-path" fill="#313131" x="19.8" y="65" width="7.84" height="3.33333333"></rect>
            <rect id="Rectangle-path" fill="#313131" x="34.36" y="56.1111111" width="11.2" height="3.33333333"></rect>
            <circle id="Oval" fill="url(#linearGradient-3)" cx="42" cy="5" r="5"></circle>
            <circle id="Oval" fill="url(#linearGradient-4)" cx="74.5" cy="27.5" r="3.5"></circle>
            <circle id="Oval" fill="url(#linearGradient-4)" cx="68" cy="38" r="2"></circle>
        </g>
    </g>
</svg>