<?xml version="1.0" encoding="UTF-8"?>
<svg width="170px" height="144px" viewBox="0 0 170 144" version="1.1" xmlns="http://www.w3.org/2000/svg" xmlns:xlink="http://www.w3.org/1999/xlink">
    <!-- Generator: Sketch 46.2 (44496) - http://www.bohemiancoding.com/sketch -->
    <title>Logo</title>
    <desc>Created with Sketch.</desc>
    <defs>
        <linearGradient x1="105.448428%" y1="110.92621%" x2="19.7863981%" y2="0%" id="linearGradient-1">
            <stop stop-color="#FFCF00" offset="0%"></stop>
            <stop stop-color="#FFB100" offset="100%"></stop>
        </linearGradient>
        <linearGradient x1="22.4314218%" y1="52.5973579%" x2="109.393791%" y2="99.3353396%" id="linearGradient-2">
            <stop stop-color="#00A8F3" offset="0%"></stop>
            <stop stop-color="#59C1D3" offset="100%"></stop>
        </linearGradient>
    </defs>
    <g id="Symbols" stroke="none" stroke-width="1" fill="none" fill-rule="evenodd">
        <g id="Logo" transform="translate(-22.000000, -17.000000)">
            <g transform="translate(22.000000, 17.000000)">
                <polygon id="Path-2" fill="url(#linearGradient-1)" points="107.340312 47.9650608 107.340312 69.1434462 112.606719 74.3420139 117.949687 74.3420139 123.911719 72.6221788 127.994687 65.7981771 127.994687 46.2126736"></polygon>
                <path d="M49.8790625,45.4361118 L41,58.0923618 L41,63.5773879 L45.4395312,70.1919712 L56.6832812,71.9834209 L82.1457812,71.9834209 L86.64,70.1919712 L90.8859375,63.5773879 L90.8859375,58.0923618 C84.6019792,48.767275 81.1420833,44.0718179 80.50625,44.0059903 C79.8704167,43.9401628 69.6613542,44.4168699 49.8790625,45.4361118 Z" id="Path-8" fill="url(#linearGradient-2)"></path>
                <path d="M81.0301655,33.9647529 L81.0301655,17.8705479 L85.5495759,17.8705479 L85.5495759,15 L55.0904957,15 L55.0904957,17.8705479 L59.6099061,17.8705479 L59.6099061,33.9645615 L45.4916432,58.4644961 C43.5026901,61.9158515 43.5028811,66.03681 45.4916432,69.4881654 C47.4805964,72.9395207 51.042681,75 55.0203963,75 L85.6196754,75 C89.5973906,75 93.1594753,72.9395207 95.1484284,69.4881654 C97.1371905,66.03681 97.1371905,61.9158515 95.1484284,58.4644961 L81.0301655,33.9647529 Z M62.4750072,34.7338683 L62.4750072,17.8705479 L78.1652555,17.8705479 L78.1652555,34.7338683 L83.8897274,44.6678776 L56.7505353,44.6678776 L62.4750072,34.7338683 Z M92.6670599,68.0528914 C91.196117,70.605574 88.5615611,72.1294521 85.6196754,72.1294521 L55.0203963,72.1294521 C52.0785105,72.1294521 49.4439546,70.605574 47.9730117,68.0528914 C46.5020689,65.5002089 46.5020689,62.4522612 47.9730117,59.89977 L51.3305281,54.0735147 L60.2442395,54.0735147 L60.2442395,51.2029669 L52.9846465,51.2029669 L55.0964169,47.5384255 L85.5438457,47.5384255 L92.6672509,59.89977 C94.1380028,62.4522612 94.1380028,65.5002089 92.6670599,68.0528914 Z" id="Shape" stroke="#313131" stroke-width="1.12" fill="#313131" fill-rule="nonzero"></path>
                <path d="M128,15 L97.76,15 L97.76,17.870557 L100.82693,17.870557 L100.82693,62.9861448 C100.82693,69.6106249 106.233897,75 112.88,75 C119.526103,75 124.93307,69.6106249 124.93307,62.9861448 L124.93307,17.870557 L128,17.870557 L128,15 Z M112.88,72.1296344 C107.821888,72.1296344 103.706857,68.0279911 103.706857,62.9863361 L103.706857,62.1335893 L110.423038,62.1335893 L110.423038,59.2630323 L103.706857,59.2630323 L103.706857,47.5383379 L122.053143,47.5383379 L122.053143,51.7999668 L115.030537,51.7999668 L115.030537,54.6705238 L122.053143,54.6705238 L122.053143,62.9863361 C122.053143,68.0279911 117.938112,72.1296344 112.88,72.1296344 Z M122.053143,44.6679722 L103.706857,44.6679722 L103.706857,17.870557 L122.053143,17.870557 L122.053143,44.6679722 Z" id="Shape" stroke="#313131" stroke-width="1.12" fill="#313131" fill-rule="nonzero"></path>
                <rect id="Rectangle-path" fill="#313131" fill-rule="nonzero" x="60.8" y="65" width="7.84" height="3.33333333"></rect>
                <rect id="Rectangle-path" fill="#313131" fill-rule="nonzero" x="75.36" y="56.1111111" width="11.2" height="3.33333333"></rect>
                <circle id="Oval" fill="url(#linearGradient-2)" cx="83" cy="5" r="5"></circle>
                <circle id="Oval" fill="url(#linearGradient-1)" cx="115.5" cy="27.5" r="3.5"></circle>
                <circle id="Oval" fill="url(#linearGradient-1)" cx="109" cy="38" r="2"></circle>
                <path d="M15.8393246,94.1804687 C17.483239,94.6332834 18.9105685,95.2435898 20.1213558,96.0114062 L17.5816683,101.327031 C16.3905686,100.67734 15.0936675,100.101487 13.6909261,99.5994531 C12.2881847,99.0974193 11.1537039,98.8464062 10.2874495,98.8464062 C9.4211952,98.8464062 8.98807453,99.1417157 8.98807453,99.7323437 C8.98807453,100.175315 9.26123587,100.522303 9.80756673,100.77332 C10.3538976,101.024337 11.217678,101.30242 12.3989339,101.607578 C13.9345666,102.011174 15.2019368,102.424607 16.2010824,102.847891 C17.200228,103.271174 18.076313,103.930699 18.8293636,104.826484 C19.5824143,105.72227 19.958934,106.918274 19.958934,108.414531 C19.958934,109.930476 19.562727,111.195386 18.7703011,112.209297 C17.9778753,113.223208 16.9049173,113.976248 15.5513949,114.468437 C14.1978725,114.960627 12.6942547,115.206719 11.0404964,115.206719 C9.17017456,115.206719 7.28265436,114.911409 5.37787921,114.320781 C3.47310405,113.730153 1.82183149,112.898365 0.424011998,111.825391 L3.03752763,106.568828 C4.11050175,107.45477 5.45169928,108.225036 7.06116046,108.879648 C8.67062164,109.534261 10.016741,109.861562 11.0995589,109.861562 C12.2315958,109.861562 12.7976058,109.497347 12.7976058,108.768906 C12.7976058,108.306248 12.5195226,107.949415 11.963348,107.698398 C11.4071733,107.447382 10.5138619,107.169298 9.28338704,106.864141 C7.78712955,106.49992 6.53698579,106.116018 5.53291827,105.712422 C4.52885074,105.308826 3.66014849,104.678832 2.92678545,103.822422 C2.1934224,102.966011 1.82674638,101.824148 1.82674638,100.396797 C1.82674638,99.0088211 2.19834423,97.7955911 2.94155107,96.7570702 C3.68475792,95.7185494 4.74295046,94.9162918 6.11616046,94.3502733 C7.48937046,93.7842549 9.0815811,93.5012499 10.8928402,93.5012499 C12.5465984,93.5012499 14.1954101,93.7276539 15.8393246,94.1804687 Z M39.4093966,115 L32.6024434,115 L32.6024434,112.696562 C32.0610345,113.543129 31.3769007,114.187888 30.5500215,114.630859 C29.7231424,115.07383 28.7830737,115.295313 27.7297871,115.295313 C26.5977502,115.295313 25.5986196,115.034456 24.7323653,114.512734 C23.8661109,113.991013 23.186899,113.2552 22.694709,112.305273 C22.202519,111.355347 21.9564277,110.255319 21.9564277,109.005156 L21.9564277,98.4624999 L28.7633809,98.4624999 L28.7633809,107.041328 C28.7633809,107.730394 28.9282621,108.281639 29.2580293,108.695078 C29.5877966,109.108518 30.0283,109.315234 30.5795528,109.315234 C31.1997121,109.315234 31.6918947,109.074065 32.0561153,108.591719 C32.4203359,108.109373 32.6024434,107.464613 32.6024434,106.657422 L32.6024434,98.4624999 L39.4093966,98.4624999 L39.4093966,115 Z M58.3652107,99.2746093 C59.5120134,99.9833629 60.397942,100.987415 61.0230233,102.286797 C61.6481045,103.586178 61.9606404,105.102101 61.9606404,106.834609 C61.9606404,108.527743 61.6604091,110.009212 61.0599373,111.279062 C60.4594656,112.548913 59.598146,113.525895 58.4759529,114.210039 C57.3537598,114.894183 56.049476,115.23625 54.5630623,115.23625 C53.6771204,115.23625 52.8600973,115.071369 52.1119685,114.741602 C51.3638398,114.411834 50.7190806,113.931956 50.1776716,113.301953 L50.1776716,115 L43.3707185,115 L43.3707185,92.5562499 L50.1776716,92.5562499 L50.1776716,100.11625 C51.2703334,98.8463998 52.6681319,98.2114843 54.3711092,98.2114843 C55.8870543,98.2114843 57.2184081,98.5658558 58.3652107,99.2746093 Z M54.4227889,108.983008 C54.8805255,108.397302 55.1093904,107.622114 55.1093904,106.657422 C55.1093904,105.69273 54.8805255,104.917542 54.4227889,104.331836 C53.9650522,103.74613 53.3670504,103.453281 52.6287654,103.453281 C51.8806367,103.453281 51.2850957,103.743669 50.8421248,104.324453 C50.3991538,104.905237 50.1776716,105.682886 50.1776716,106.657422 C50.1776716,107.622114 50.3991538,108.397302 50.8421248,108.983008 C51.2850957,109.568714 51.8806367,109.861562 52.6287654,109.861562 C53.3670504,109.861562 53.9650522,109.568714 54.4227889,108.983008 Z M79.0338374,100.249141 L76.7894624,104.442578 C74.3285126,103.231791 72.4631406,102.626406 71.1932905,102.626406 C70.9078203,102.626406 70.6814164,102.678085 70.5140718,102.781445 C70.3467272,102.884805 70.2630561,103.015234 70.2630561,103.172734 C70.2630561,103.418829 70.4427028,103.623085 70.8020015,103.785508 C71.1613001,103.94793 71.7642238,104.137421 72.6107905,104.353984 C73.8018902,104.67883 74.8207082,105.013514 75.6672749,105.358047 C76.5138416,105.70258 77.2545764,106.226754 77.8895015,106.930586 C78.5244265,107.634418 78.8418843,108.552338 78.8418843,109.684375 C78.8418843,110.816412 78.5342702,111.803238 77.9190327,112.644883 C77.3037953,113.486528 76.4326321,114.13867 75.3055171,114.601328 C74.1784021,115.063987 72.8568919,115.295313 71.3409468,115.295313 C68.2598376,115.295313 65.5725207,114.512742 63.2789155,112.947578 L65.3313374,108.709844 C67.5461922,110.078132 69.5838281,110.762266 71.4443061,110.762266 C71.7691515,110.762266 72.0201646,110.717969 72.197353,110.629375 C72.3745414,110.540781 72.4631343,110.427579 72.4631343,110.289766 C72.4631343,110.063358 72.2859485,109.873868 71.9315718,109.721289 C71.577195,109.56871 71.011185,109.393985 70.2335249,109.197109 C69.0424252,108.891952 68.0334509,108.567111 67.2065718,108.222578 C66.3796926,107.878045 65.6488015,107.353871 65.0138764,106.650039 C64.3789514,105.946207 64.0614936,105.018443 64.0614936,103.866719 C64.0614936,102.714994 64.3641859,101.713403 64.9695796,100.861914 C65.5749732,100.010425 66.4264491,99.3459789 67.5240327,98.8685546 C68.6216163,98.3911304 69.8939083,98.1524218 71.3409468,98.1524218 C73.9889288,98.1622656 76.5532,98.8611649 79.0338374,100.249141 Z M91.4115656,115.029531 C90.5354675,115.20672 89.644617,115.295313 88.7389875,115.295313 C86.8883532,115.295313 85.4019618,114.788364 84.2797687,113.774453 C83.1575756,112.760542 82.5964875,111.397196 82.5964875,109.684375 L82.5964875,103.66 L80.3225812,103.66 L80.3225812,99.3632031 L82.5964875,99.3632031 L82.5964875,94.7415624 L89.3739094,94.7415624 L89.3739094,99.3632031 L93.2425031,99.3632031 L93.2425031,103.66 L89.3739094,103.66 L89.3739094,108.650781 C89.3739094,109.093752 89.4944941,109.440741 89.7356672,109.691758 C89.9768403,109.942775 90.2992199,110.058438 90.7028156,110.03875 C91.0867238,110.03875 91.6527338,109.896017 92.4008625,109.610547 L93.5378156,114.276484 C92.9964067,114.60133 92.2876638,114.852343 91.4115656,115.029531 Z M109.806286,99.7692577 C111.149965,100.847154 111.821794,102.355693 111.821794,104.294922 L111.821794,115 L105.132966,115 L105.132966,113.213359 C104.128898,114.601335 102.578523,115.295313 100.481794,115.295313 C98.7492852,115.295313 97.3933222,114.827739 96.4138641,113.892578 C95.4344061,112.957417 94.9446844,111.692508 94.9446844,110.097812 C94.9446844,108.463742 95.4885462,107.223442 96.576286,106.376875 C97.6640258,105.530308 99.2562365,105.087344 101.352966,105.047969 L105.132966,105.047969 C105.113278,104.467185 104.886874,104.019298 104.453747,103.704297 C104.02062,103.389295 103.390626,103.231797 102.563747,103.231797 C101.914056,103.231797 101.14133,103.322851 100.245544,103.504961 C99.3497581,103.687071 98.449064,103.950389 97.5434344,104.294922 L96.0225751,99.7618749 C97.4302384,99.2401536 98.8354196,98.8414857 100.238161,98.5658593 C101.640902,98.2902329 102.957491,98.1524218 104.187966,98.1524218 C106.589853,98.1524218 108.462607,98.6913617 109.806286,99.7692577 Z M104.114138,110.651523 C104.527577,110.430038 104.867183,110.117502 105.132966,109.713906 L105.132966,108.193047 L102.770466,108.193047 C101.805773,108.193047 101.323434,108.636011 101.323434,109.521953 C101.323434,109.984612 101.453863,110.343905 101.714724,110.599844 C101.975584,110.855783 102.347182,110.98375 102.829528,110.98375 C103.272499,110.98375 103.700698,110.873009 104.114138,110.651523 Z M130.061475,98.9423827 C130.957261,99.469026 131.658621,100.204839 132.165577,101.149844 C132.672532,102.094848 132.926006,103.192416 132.926006,104.442578 L132.926006,115 L126.119053,115 L126.119053,106.406406 C126.119053,105.71734 125.936946,105.168557 125.572725,104.760039 C125.208505,104.351521 124.736009,104.147266 124.155225,104.147266 C123.485847,104.147266 122.95429,104.388435 122.560538,104.870781 C122.166786,105.353127 121.969913,105.997887 121.969913,106.805078 L121.969913,115 L115.177725,115 L115.177725,98.4624999 L121.969913,98.4624999 L121.969913,100.810234 C122.531009,99.94398 123.242213,99.2844553 124.103546,98.8316406 C124.964878,98.3788258 125.927095,98.1524218 126.990225,98.1524218 C128.14195,98.1524218 129.16569,98.4157395 130.061475,98.9423827 Z M148.552172,99.4665624 C149.92046,100.303285 150.949122,101.479602 151.638188,102.995547 L146.219203,105.298984 C145.776232,104.255542 145.072411,103.728906 144.107719,103.719062 C143.438341,103.719062 142.909244,103.997146 142.520414,104.55332 C142.131584,105.109495 141.937172,105.85023 141.937172,106.775547 C141.937172,107.720552 142.131584,108.47113 142.520414,109.027305 C142.909244,109.583479 143.438341,109.861562 144.107719,109.861562 C145.111787,109.861562 145.786077,109.266022 146.13061,108.074922 L151.638188,110.614609 C151.037716,112.091179 150.045968,113.230582 148.662914,114.032852 C147.279861,114.835121 145.638432,115.23625 143.738578,115.23625 C142.00607,115.23625 140.485226,114.889261 139.176,114.195273 C137.866775,113.501286 136.85534,112.519381 136.141664,111.249531 C135.427989,109.979681 135.071157,108.498212 135.071157,106.805078 C135.071157,105.092257 135.427989,103.586178 136.141664,102.286797 C136.85534,100.987415 137.871697,99.9833629 139.190766,99.2746093 C140.509835,98.5658558 142.050367,98.2114843 143.812407,98.2114843 C145.603978,98.2114843 147.183884,98.6298395 148.552172,99.4665624 Z M165.75826,99.3336718 C167.087173,100.081801 168.105991,101.144915 168.814744,102.523047 C169.523498,103.901179 169.877869,105.520459 169.877869,107.380937 C169.877869,107.764846 169.868026,108.055233 169.848338,108.252109 L159.084197,108.252109 C159.310605,108.9018 159.657593,109.391522 160.125174,109.721289 C160.592754,110.051056 161.161225,110.215937 161.830604,110.215937 C163.021703,110.215937 164.138958,109.723755 165.1824,108.739375 L168.72615,112.224062 C167.840209,113.208442 166.767251,113.95656 165.507244,114.468437 C164.247238,114.980315 162.819908,115.23625 161.225213,115.23625 C159.374579,115.23625 157.767603,114.889261 156.404236,114.195273 C155.04087,113.501286 154.002365,112.519381 153.288689,111.249531 C152.575014,109.979681 152.218182,108.498212 152.218182,106.805078 C152.218182,105.072569 152.579936,103.561569 153.303455,102.272031 C154.026974,100.982493 155.060558,99.9833629 156.404236,99.2746093 C157.747915,98.5658558 159.295829,98.2114843 161.048025,98.2114843 C162.859284,98.2114843 164.429347,98.5855431 165.75826,99.3336718 Z M162.539354,103.42375 C162.165289,102.980779 161.687872,102.759297 161.107088,102.759297 C160.545991,102.759297 160.078418,102.970935 159.704354,103.394219 C159.330289,103.817502 159.069432,104.388434 158.921775,105.107031 L163.041385,105.107031 C163.08076,104.427809 162.913418,103.866721 162.539354,103.42375 Z" id="Substance" fill="#313131"></path>
                <path d="M17.7654327,140 L16.3435577,136.367188 L11.7654327,136.367188 L10.3591827,140 L9.01543272,140 L13.5310577,128.53125 L14.6482452,128.53125 L19.1404327,140 L17.7654327,140 Z M15.9294952,135.171875 L14.6013702,131.632812 C14.4294944,131.184894 14.2524128,130.63542 14.0701202,129.984375 C13.9555363,130.484377 13.7914754,131.033851 13.5779327,131.632812 L12.2341827,135.171875 L15.9294952,135.171875 Z M28.6812741,135.25 L28.6812741,140 L27.3531491,140 L27.3531491,128.578125 L30.4859616,128.578125 C31.8870102,128.578125 32.9221561,128.846351 33.5914303,129.382812 C34.2607045,129.919274 34.5953366,130.726557 34.5953366,131.804688 C34.5953366,133.315112 33.8297192,134.335935 32.2984616,134.867188 L35.4000241,140 L33.8297116,140 L31.0640866,135.25 L28.6812741,135.25 Z M28.6812741,134.109375 L30.5015866,134.109375 C31.4390912,134.109375 32.1265844,133.923179 32.5640866,133.550781 C33.0015887,133.178384 33.2203366,132.619795 33.2203366,131.875 C33.2203366,131.119788 32.9976825,130.575523 32.5523678,130.242188 C32.1070531,129.908852 31.3922165,129.742188 30.4078366,129.742188 L28.6812741,129.742188 L28.6812741,134.109375 Z M41.908726,140.15625 C40.6430946,140.15625 39.6444067,139.770837 38.9126322,139 C38.1808577,138.229163 37.814976,137.158861 37.814976,135.789062 C37.814976,134.408847 38.1548163,133.312504 38.8345072,132.5 C39.5141981,131.687496 40.4269494,131.28125 41.5727885,131.28125 C42.6457105,131.28125 43.4946604,131.634111 44.1196635,132.339844 C44.7446666,133.045576 45.0571635,133.976557 45.0571635,135.132812 L45.0571635,135.953125 L39.158726,135.953125 C39.1847678,136.958338 39.4386715,137.721352 39.9204447,138.242188 C40.402218,138.763023 41.0805966,139.023438 41.955601,139.023438 C42.8774806,139.023438 43.7889298,138.830731 44.689976,138.445312 L44.689976,139.601562 C44.2316404,139.79948 43.7980509,139.941406 43.3891947,140.027344 C42.9803385,140.113282 42.4868539,140.15625 41.908726,140.15625 Z M41.5571635,132.367188 C40.86966,132.367188 40.3214884,132.591144 39.9126322,133.039062 C39.503776,133.486981 39.262893,134.106767 39.189976,134.898438 L43.6665385,134.898438 C43.6665385,134.080725 43.4842486,133.454429 43.1196635,133.019531 C42.7550783,132.584633 42.2342502,132.367188 41.5571635,132.367188 Z M53.7768029,140 L53.5189904,138.78125 L53.4564904,138.78125 C53.0294049,139.317711 52.6036279,139.680989 52.1791466,139.871094 C51.7546654,140.061199 51.2247227,140.15625 50.5893029,140.15625 C49.7403403,140.15625 49.0749824,139.937502 48.5932091,139.5 C48.1114359,139.062498 47.8705529,138.440108 47.8705529,137.632812 C47.8705529,135.903637 49.2533516,134.997396 52.0189904,134.914062 L53.4721154,134.867188 L53.4721154,134.335938 C53.4721154,133.664059 53.3275856,133.16797 53.0385216,132.847656 C52.7494577,132.527342 52.2872227,132.367188 51.6518029,132.367188 C50.9382577,132.367188 50.1309741,132.585935 49.2299279,133.023438 L48.8314904,132.03125 C49.2533675,131.802082 49.7156025,131.622396 50.2182091,131.492188 C50.7208158,131.361979 51.224717,131.296875 51.7299279,131.296875 C52.7507663,131.296875 53.5072692,131.523435 53.9994591,131.976562 C54.4916491,132.42969 54.7377404,133.156245 54.7377404,134.15625 L54.7377404,140 L53.7768029,140 Z M50.8471154,139.085938 C51.6544111,139.085938 52.2885193,138.864586 52.7494591,138.421875 C53.210399,137.979164 53.4408654,137.359379 53.4408654,136.5625 L53.4408654,135.789062 L52.1439904,135.84375 C51.1127352,135.880209 50.3692531,136.040363 49.9135216,136.324219 C49.4577902,136.608074 49.2299279,137.049476 49.2299279,137.648438 C49.2299279,138.11719 49.3718536,138.473957 49.6557091,138.71875 C49.9395647,138.963543 50.3366962,139.085938 50.8471154,139.085938 Z M62.0745673,140.15625 C60.8349778,140.15625 59.875352,139.774743 59.1956611,139.011719 C58.5159702,138.248694 58.1761298,137.169278 58.1761298,135.773438 C58.1761298,134.341139 58.5211785,133.234379 59.2112861,132.453125 C59.9013937,131.671871 60.8844568,131.28125 62.1605048,131.28125 C62.5719652,131.28125 62.9834194,131.32552 63.3948798,131.414062 C63.8063402,131.502605 64.1292536,131.60677 64.3636298,131.726562 L63.9651923,132.828125 C63.6787326,132.713541 63.3662357,132.61849 63.0276923,132.542969 C62.689149,132.467448 62.3896728,132.429688 62.1292548,132.429688 C60.3896628,132.429688 59.5198798,133.539051 59.5198798,135.757812 C59.5198798,136.809901 59.7321173,137.617185 60.1565986,138.179688 C60.5810799,138.74219 61.2099798,139.023438 62.0433173,139.023438 C62.7568626,139.023438 63.4886261,138.869793 64.2386298,138.5625 L64.2386298,139.710938 C63.6657103,140.007814 62.9443633,140.15625 62.0745673,140.15625 Z M70.2785817,139.085938 C70.5077496,139.085938 70.7291015,139.069011 70.9426442,139.035156 C71.156187,139.001302 71.3254561,138.966146 71.4504567,138.929688 L71.4504567,139.921875 C71.309831,139.989584 71.1028019,140.045573 70.829363,140.089844 C70.5559241,140.134115 70.3098328,140.15625 70.0910817,140.15625 C68.4348235,140.15625 67.6067067,139.283863 67.6067067,137.539062 L67.6067067,132.445312 L66.3801442,132.445312 L66.3801442,131.820312 L67.6067067,131.28125 L68.1535817,129.453125 L68.9035817,129.453125 L68.9035817,131.4375 L71.3879567,131.4375 L71.3879567,132.445312 L68.9035817,132.445312 L68.9035817,137.484375 C68.9035817,138.000003 69.0259763,138.395832 69.2707692,138.671875 C69.5155621,138.947918 69.8514963,139.085938 70.2785817,139.085938 Z M88.6241106,128.578125 L88.6241106,135.96875 C88.6241106,137.27084 88.2308853,138.294267 87.4444231,139.039062 C86.6579608,139.783858 85.5772425,140.15625 84.2022356,140.15625 C82.8272287,140.15625 81.7634373,139.781254 81.0108293,139.03125 C80.2582214,138.281246 79.8819231,137.250007 79.8819231,135.9375 L79.8819231,128.578125 L81.2100481,128.578125 L81.2100481,136.03125 C81.2100481,136.98438 81.4704621,137.716143 81.9912981,138.226562 C82.512134,138.736982 83.2777514,138.992188 84.2881731,138.992188 C85.2517196,138.992188 85.9938996,138.73568 86.5147356,138.222656 C87.0355715,137.709633 87.2959856,136.973963 87.2959856,136.015625 L87.2959856,128.578125 L88.6241106,128.578125 Z M92.890625,140 L92.890625,128.578125 L94.21875,128.578125 L94.21875,140 L92.890625,140 Z M103.993966,140 L103.993966,128.578125 L105.322091,128.578125 L105.322091,138.796875 L110.361154,138.796875 L110.361154,140 L103.993966,140 Z M114.643293,140 L113.346418,140 L113.346418,131.4375 L114.643293,131.4375 L114.643293,140 Z M113.237043,129.117188 C113.237043,128.820311 113.309959,128.602865 113.455793,128.464844 C113.601627,128.326822 113.783917,128.257812 114.002668,128.257812 C114.211003,128.257812 114.390688,128.328124 114.541731,128.46875 C114.692773,128.609376 114.768293,128.825519 114.768293,129.117188 C114.768293,129.408856 114.692773,129.626301 114.541731,129.769531 C114.390688,129.912761 114.211003,129.984375 114.002668,129.984375 C113.783917,129.984375 113.601627,129.912761 113.455793,129.769531 C113.309959,129.626301 113.237043,129.408856 113.237043,129.117188 Z M122.620745,131.296875 C123.745751,131.296875 124.61944,131.680986 125.241839,132.449219 C125.864238,133.217452 126.175433,134.30468 126.175433,135.710938 C126.175433,137.117195 125.861634,138.209632 125.234026,138.988281 C124.606419,139.766931 123.735334,140.15625 122.620745,140.15625 C122.063451,140.15625 121.554341,140.053386 121.093401,139.847656 C120.632462,139.641926 120.245747,139.325523 119.933245,138.898438 L119.839495,138.898438 L119.566058,140 L118.63637,140 L118.63637,127.84375 L119.933245,127.84375 L119.933245,130.796875 C119.933245,131.458337 119.912412,132.052081 119.870745,132.578125 L119.933245,132.578125 C120.537415,131.723954 121.433239,131.296875 122.620745,131.296875 Z M122.433245,132.382812 C121.547824,132.382812 120.90981,132.636716 120.519183,133.144531 C120.128556,133.652346 119.933245,134.507806 119.933245,135.710938 C119.933245,136.914069 120.133764,137.774737 120.534808,138.292969 C120.935851,138.811201 121.579074,139.070312 122.464495,139.070312 C123.261374,139.070312 123.855118,138.779951 124.245745,138.199219 C124.636372,137.618487 124.831683,136.78386 124.831683,135.695312 C124.831683,134.580724 124.636372,133.750003 124.245745,133.203125 C123.855118,132.656247 123.250958,132.382812 122.433245,132.382812 Z M133.590385,131.28125 C133.970595,131.28125 134.311737,131.3125 134.613822,131.375 L134.434135,132.578125 C134.079966,132.5 133.767469,132.460938 133.496635,132.460938 C132.803923,132.460938 132.211481,132.742185 131.719291,133.304688 C131.227101,133.86719 130.98101,134.567704 130.98101,135.40625 L130.98101,140 L129.684135,140 L129.684135,131.4375 L130.754447,131.4375 L130.902885,133.023438 L130.965385,133.023438 C131.283095,132.466143 131.665903,132.03646 132.113822,131.734375 C132.561741,131.43229 133.053924,131.28125 133.590385,131.28125 Z M142.403774,140 L142.145962,138.78125 L142.083462,138.78125 C141.656376,139.317711 141.230599,139.680989 140.806118,139.871094 C140.381636,140.061199 139.851694,140.15625 139.216274,140.15625 C138.367311,140.15625 137.701954,139.937502 137.22018,139.5 C136.738407,139.062498 136.497524,138.440108 136.497524,137.632812 C136.497524,135.903637 137.880323,134.997396 140.645962,134.914062 L142.099087,134.867188 L142.099087,134.335938 C142.099087,133.664059 141.954557,133.16797 141.665493,132.847656 C141.376429,132.527342 140.914194,132.367188 140.278774,132.367188 C139.565229,132.367188 138.757945,132.585935 137.856899,133.023438 L137.458462,132.03125 C137.880339,131.802082 138.342574,131.622396 138.84518,131.492188 C139.347787,131.361979 139.851688,131.296875 140.356899,131.296875 C141.377737,131.296875 142.13424,131.523435 142.62643,131.976562 C143.11862,132.42969 143.364712,133.156245 143.364712,134.15625 L143.364712,140 L142.403774,140 Z M139.474087,139.085938 C140.281382,139.085938 140.91549,138.864586 141.37643,138.421875 C141.83737,137.979164 142.067837,137.359379 142.067837,136.5625 L142.067837,135.789062 L140.770962,135.84375 C139.739706,135.880209 138.996224,136.040363 138.540493,136.324219 C138.084761,136.608074 137.856899,137.049476 137.856899,137.648438 C137.856899,138.11719 137.998825,138.473957 138.28268,138.71875 C138.566536,138.963543 138.963667,139.085938 139.474087,139.085938 Z M151.185913,131.28125 C151.566124,131.28125 151.907266,131.3125 152.209351,131.375 L152.029663,132.578125 C151.675495,132.5 151.362998,132.460938 151.092163,132.460938 C150.399452,132.460938 149.80701,132.742185 149.31482,133.304688 C148.82263,133.86719 148.576538,134.567704 148.576538,135.40625 L148.576538,140 L147.279663,140 L147.279663,131.4375 L148.349976,131.4375 L148.498413,133.023438 L148.560913,133.023438 C148.878623,132.466143 149.261432,132.03646 149.709351,131.734375 C150.15727,131.43229 150.649452,131.28125 151.185913,131.28125 Z M153.694615,131.4375 L155.08524,131.4375 L156.96024,136.320312 C157.371701,137.434901 157.626907,138.239581 157.725865,138.734375 L157.788365,138.734375 C157.856074,138.468749 157.998,138.014326 158.214147,137.371094 C158.430294,136.727861 159.137318,134.750017 160.33524,131.4375 L161.725865,131.4375 L158.046178,141.1875 C157.681593,142.151046 157.255816,142.834633 156.768834,143.238281 C156.281853,143.641929 155.684202,143.84375 154.975865,143.84375 C154.58003,143.84375 154.189409,143.79948 153.80399,143.710938 L153.80399,142.671875 C154.09045,142.734375 154.410759,142.765625 154.764928,142.765625 C155.655557,142.765625 156.290968,142.26563 156.671178,141.265625 L157.14774,140.046875 L153.694615,131.4375 Z" id="A-React-UI-Library" fill="#888888"></path>
            </g>
        </g>
    </g>
</svg>